<svg xmlns="http://www.w3.org/2000/svg" xmlns:xlink="http://www.w3.org/1999/xlink" style="vertical-align:-.755ex" width="9.877ex" height="2.634ex" viewBox="0 -809.3 4252.4 1134.2"><defs><path id="a" stroke-width="1" d="M94 250q0 69 10 131t23 107 37 88 38 67 42 52 33 34 25 21h17q14 0 14-9 0-3-17-21t-41-53-49-86-42-138-17-193 17-192 41-139 49-86 42-53 17-21q0-9-15-9h-16l-28 24q-94 85-137 212T94 250z"/><path id="b" stroke-width="1" d="M131 289q0 32 16 65t56 61 97 27q62 0 90-27t29-60q0-32-17-47t-38-16q-13 0-24 8t-12 26q0 16 9 28t17 18 13 6q1 0 1 1 0 3-7 9t-25 11-39 6q-48 0-70-26t-23-53q0-25 19-35t55-17 52-15q66-29 66-96 0-28-11-56t-33-56-63-44-94-17q-77 0-109 29T53 87q0 39 21 56t44 17q15 0 28-9t14-31q0-26-18-44t-31-18q-2-1-3-1t-1-2q1-3 8-8t31-13 55-7q36 0 62 11t38 28 17 31 5 25q0 28-21 42t-48 17-59 15-47 35q-17 25-17 58z"/><path id="c" stroke-width="1" d="M184 600q0 24 19 42t44 19q18 0 30-12t13-30q0-23-20-42t-44-20q-15 0-28 10t-14 33zM21 287q0 8 9 31t24 51 44 51 60 22q39 0 65-23t27-62q0-17-14-56t-40-105-42-113q-5-22-5-32 0-25 17-25 9 0 19 3t23 14 27 35 25 59q3 12 5 14t17 2q20 0 20-10 0-8-9-31t-25-51-45-50-62-22q-32 0-59 21T74 74q0 17 5 32t43 114q38 101 44 121t7 39q0 24-17 24h-2q-30 0-55-33t-38-84q-1-1-2-3t-1-3-2-2-3-1-4 0-8 0H27q-6 6-6 9z"/><path id="d" stroke-width="1" d="M347 338q-10 0-53 11t-63 11q-20 0-34-4t-23-10-12-11-7-11l-2-4q-3-3-15-3-21 0-21 8 0 5 3 14 13 39 43 67t66 34q12 2 17 2 25 0 45-17t38-33 38-17q22 0 44 33t23 33q1 1 15 1h13q6-6 6-8 0-4-5-14t-14-21-17-22-14-19l-7-9q-43-51-136-135T160 106l-12-12 15-1q22 0 64-11t63-11q38 0 70 19t42 50q4 9 7 11t15 2q19 0 19-10 0-5-1-9-17-62-66-103t-98-42q-26 0-46 17t-39 34-38 17q-44 0-79-60-6-8-17-8H41q-6 6-6 9 0 15 58 86 39 45 132 130t115 108q12 16 7 16z"/><path id="e" stroke-width="1" d="M39 168q0 57 19 104t49 78 67 52 70 31 63 9h3q45 0 78-22t33-65q0-90-111-118-49-13-134-14-37 0-38-2 0-2-6-35t-7-58q0-47 21-74t63-28 93 19 92 66q9 10 12 10 4 0 13-9t10-14-9-16-30-27-46-31-63-25-76-10q-79 0-122 53T39 168zm334 185q-6 52-68 52-33 0-61-14t-45-34-29-41-16-36-5-19q0-1 20-1 113 0 158 24t46 69z"/><path id="f" stroke-width="1" d="M84 237v13l14 20h581q15-8 15-20t-15-20H98q-14 7-14 20z"/><path id="g" stroke-width="1" d="M213 578l-13-5q-14-5-40-10t-58-7H83v46h19q47 2 87 15t56 24 28 22q2 3 12 3 9 0 17-6V361l1-300q7-7 12-9t24-4 62-2h26V0h-11q-21 3-159 3-136 0-157-3H88v46h64q16 0 25 1t16 3 8 2 6 5 6 4v517z"/><path id="h" stroke-width="1" d="M60 749l4 1h22l28-24q94-85 137-212t43-264q0-68-10-131T261 12t-37-88-38-67-41-51-32-33-23-19l-4-4H63q-3 0-5 3t-3 9q1 1 11 13Q221-64 221 250T66 725q-10 12-11 13 0 8 5 11z"/></defs><g fill="currentColor" stroke="currentColor" stroke-width="0" transform="scale(1 -1)"><use xlink:href="#a"/><use x="389" xlink:href="#b"/><use x="859" xlink:href="#c"/><use x="1204" xlink:href="#d"/><use x="1673" xlink:href="#e"/><use x="2361" xlink:href="#f"/><use x="3362" xlink:href="#g"/><use x="3862" xlink:href="#h"/></g></svg>